<?xml version="1.0" encoding="utf-8"?>
<!-- Generator: Adobe Illustrator 23.0.6, SVG Export Plug-In . SVG Version: 6.00 Build 0)  -->
<svg version="1.1" id="Layer_1" xmlns="http://www.w3.org/2000/svg" xmlns:xlink="http://www.w3.org/1999/xlink" x="0px" y="0px"
	 viewBox="0 0 250.3 500" style="enable-background:new 0 0 250.3 500;" xml:space="preserve">
<style type="text/css">
	.st0{fill:#1C2B4E;}
</style>
<g>
	<path class="st0" d="M209.6,6.5h-8.4c-24.4,0-48.6,3.5-71.9,10.5l-28.4,8.6C86,30,75.6,44,75.6,59.5v6.3c0,14,3.9,27.6,11.4,39.4
		L169.4,235c13.9,21.8,13.3,49.7-1.5,71l-47.1,67.7c-4.2,6-12.5,7.6-18.5,3.5l-71-48c-5.6-3.9-9-10.3-9-17.1v-69.9
		c0-2,0.9-3.8,2.5-5l17.9-13c8.1-5.9,12.9-15.4,12.9-25.4v-0.3c0-4.6-2-8.9-5.5-11.8c-3.4-2.9-8-4.1-12.4-3.3l-34.5,6.1
		c-1.1,0.2-2.1,0.3-3.2,0.2v14.4c1.9,0,3.7-0.2,5.6-0.5l34.5-6.1c0.3-0.1,0.6,0,0.8,0.2c0.3,0.2,0.4,0.5,0.4,0.8v0.3
		c0,5.5-2.7,10.7-7.1,13.9l-17.9,13c-5.3,3.8-8.4,10-8.4,16.5v69.9c0,11.6,5.7,22.4,15.3,28.9l71,48c4.7,3.2,10.1,4.7,15.4,4.7
		c8.8,0,17.5-4.1,22.9-11.8l47.1-67.7c18-26,18.8-60.1,1.8-86.8l-74.7-117.8l62.6-2.4c14.3-0.5,27.7-6.4,37.8-16.5l10-10
		c10.6-10.7,16.5-24.8,16.5-39.9V30.5C233.6,17.3,222.9,6.5,209.6,6.5z M219.2,40.7c0,11.3-4.4,21.9-12.3,29.8l-10,10
		c-7.6,7.5-17.6,11.9-28.3,12.3l-70.9,2.7c-5.2-9-8-19.3-8-29.8v-6.3c0-9.2,6.2-17.5,15.1-20.2l28.5-8.5c22-6.6,44.8-9.9,67.8-9.9
		v-0.1h8.3c5.4,0,9.8,4.4,9.8,9.8V40.7z"/>
	<path class="st0" d="M97.2,412.3L19.6,364c-6-3.8-12.8-5.6-19.6-5.6v14.2c4.2,0,8.4,1.2,12,3.5l77.6,48.3c2.9,1.8,3.1,4.6,3.1,5.7
		c-0.1,1.1-0.5,3.9-3.4,5.5l-73.1,40c-5.1,2.8-10.6,4.2-16.2,4.2V494c8,0,15.9-2,23.1-5.9l73.1-40c6.5-3.5,10.6-10.1,10.8-17.6
		C107.2,423.1,103.5,416.3,97.2,412.3z"/>
</g>
</svg>
