<?xml version="1.0" encoding="utf-8"?>
<!-- Generator: Adobe Illustrator 23.0.6, SVG Export Plug-In . SVG Version: 6.00 Build 0)  -->
<svg version="1.1" id="Layer_1" xmlns="http://www.w3.org/2000/svg" xmlns:xlink="http://www.w3.org/1999/xlink" x="0px" y="0px"
	 viewBox="0 0 500 500" style="enable-background:new 0 0 500 500;" xml:space="preserve">
<style type="text/css">
	.st0{fill:#1C2B4E;}
</style>
<g>
	<path class="st0" d="M40.3,20.8c-5.4,0-9.8,4.4-9.8,9.8v10.3c0,11.2,4.4,21.8,12.3,29.8l10,10c7.6,7.6,17.6,11.9,28.3,12.3
		l70.9,2.7c5.3-9,8-19.3,8-29.8v-6.3c0-9.3-6.2-17.6-15.1-20.2l-28.5-8.5c-22-6.6-44.8-9.9-67.8-9.9H40.3z M450.8,20.8
		c-23,0-45.8,3.3-67.8,9.9l-28.5,8.5c-8.9,2.7-15.1,11-15.1,20.2v6.3c0,10.5,2.8,20.8,8,29.8l70.9-2.7c10.7-0.4,20.7-4.8,28.3-12.3
		l10-10c7.9-7.9,12.3-18.5,12.3-29.8V30.5c0-5.4-4.4-9.8-9.8-9.8H450.8z M359.3,393.7c-5.3,0-10.7-1.5-15.4-4.7l-71-48
		c-9.6-6.5-15.3-17.3-15.3-28.9v-69.9c0-6.5,3.1-12.7,8.4-16.5l17.9-13c4.4-3.2,7.1-8.4,7.1-13.9v-0.3c0-0.3-0.1-0.6-0.4-0.8
		c-0.2-0.2-0.5-0.3-0.8-0.2l-34.5,6.1c-3.7,0.7-7.4,0.7-11.1,0l-34.5-6.1c-0.3-0.1-0.6,0-0.8,0.2c-0.2,0.2-0.3,0.4-0.3,0.7
		c0,5.7,2.7,11.1,7.3,14.4l17.6,12.8c5.3,3.8,8.4,10,8.4,16.5v69.9c0,11.6-5.7,22.4-15.3,28.9l-71,48c-12.5,8.4-29.6,5.2-38.2-7.1
		l-47.1-67.7c-18.1-26-18.8-60.1-1.8-86.8l74.7-117.8l-62.6-2.4c-14.3-0.5-27.7-6.4-37.8-16.5l-10-10C22.1,70,16.2,55.9,16.2,40.8
		V30.5c0-13.3,10.8-24,24-24h8.4C73,6.5,97.2,10,120.5,17l28.5,8.5c14.9,4.4,25.3,18.4,25.3,33.9v6.3c0,14-4,27.6-11.4,39.4
		L80.5,235c-13.9,21.9-13.3,49.8,1.5,71l47.1,67.7c4.2,6,12.5,7.5,18.5,3.5l71-48c5.7-3.8,9.1-10.2,9.1-17.1v-69.9
		c0-2-0.9-3.8-2.5-5l-17.6-12.8c-8.3-6-13.2-15.7-13.2-26c0-4.5,2-8.8,5.4-11.7s8-4.1,12.5-3.3l34.5,6.1c2,0.3,4.1,0.4,6.1,0
		l34.5-6.1c4.4-0.8,9,0.4,12.4,3.3c3.5,2.9,5.5,7.2,5.5,11.8v0.3c0,10-4.8,19.5-12.9,25.4l-17.9,13c-1.6,1.2-2.5,3-2.5,5v69.9
		c0,6.8,3.4,13.2,9,17.1l71,48c6,4.1,14.3,2.5,18.5-3.5l47.1-67.7c14.8-21.3,15.4-49.2,1.5-71l-82.4-129.8
		c-7.5-11.8-11.4-25.4-11.4-39.4v-6.3c0-15.5,10.4-29.5,25.3-33.9L379,17c23.3-7,47.5-10.5,71.9-10.5h8.4c13.3,0,24,10.8,24,24v10.3
		c0,15.1-5.9,29.2-16.5,39.9l-10,10c-10.1,10.1-23.5,16-37.8,16.5l-62.6,2.4l74.7,117.8c17,26.7,16.2,60.8-1.8,86.8l-47.1,67.7
		C376.8,389.6,368.1,393.7,359.3,393.7"/>
	<path class="st0" d="M249.7,372.6c-4.2,0-8.3,1.2-12,3.5l-77.6,48.3c-2.9,1.8-3.1,4.6-3.1,5.7c0,1.1,0.4,3.9,3.4,5.5l73.1,40
		c10.2,5.6,22.3,5.6,32.4,0l73.1-40c2.9-1.6,3.3-4.4,3.4-5.5c0-1.1-0.2-3.9-3.1-5.7l-77.6-48.3C258.1,373.8,253.9,372.6,249.7,372.6
		 M249.7,494c-7.9,0-15.8-2-23.1-5.9l-73.1-40c-6.5-3.6-10.6-10.2-10.8-17.6s3.5-14.3,9.8-18.2l77.6-48.3c12.1-7.5,27.1-7.5,39.2,0
		l77.6,48.3c6.3,4,10,10.8,9.8,18.2c-0.2,7.5-4.3,14.1-10.8,17.6l-73.1,40C265.6,492,257.7,494,249.7,494"/>
</g>
</svg>
